<svg id="Layer_1" data-name="Layer 1" xmlns="http://www.w3.org/2000/svg" viewBox="0 0 169.67 45.08"><defs><style>.cls-1{font-size:27px;fill:#3f57a7;}.cls-1,.cls-3{font-family:NotoSans-Regular, Noto Sans;}.cls-2{fill:#d1803c;}.cls-3{font-size:14px;fill:#fff;}</style></defs><title>logo</title><text class="cls-1" transform="translate(21.03 21.16)">FREEDOM</text><path class="cls-2" d="M28.71,35.67H24.1a3.91,3.91,0,0,0-2.29,2.71c-.36,2-1.45,5.55-6,5.7s-10.21-6.9-4.72-14.16a1.07,1.07,0,0,0,.4-.92H28.71Z"/><path class="cls-2" d="M28.71,22.33H24.1a3.88,3.88,0,0,1-2.29-2.7c-.36-2-1.45-5.56-6-5.7s-10.21,6.9-4.72,14.16a1,1,0,0,1,.4.91H28.71Z"/><path class="cls-2" d="M139.31,35.67h4.61a3.91,3.91,0,0,1,2.28,2.71c.37,2,1.46,5.55,6,5.7s10.2-6.9,4.72-14.16a1.07,1.07,0,0,1-.4-.92H139.31Z"/><path class="cls-2" d="M139.31,22.33h4.61a3.88,3.88,0,0,0,2.28-2.7c.37-2,1.46-5.56,6-5.7s10.2,6.9,4.72,14.16a1,1,0,0,0-.4.91H139.31Z"/><rect class="cls-2" x="25.96" y="22.33" width="117.9" height="13.34"/><text class="cls-3" transform="translate(40.44 33.86)">DOG RESCUE</text></svg>